<svg width="23" height="22" viewBox="0 0 23 22" fill="none" xmlns="http://www.w3.org/2000/svg">
<g clip-path="url(#clip0)">
<path d="M11.0947 -0.0057373H0V10.9943C0 13.9116 1.1689 16.7095 3.24956 18.7724C5.33022 20.8353 8.1522 21.9943 11.0947 21.9943C12.5516 21.9943 13.9942 21.7097 15.3402 21.1569C16.6862 20.6041 17.9092 19.7938 18.9393 18.7724C19.9695 17.7509 20.7865 16.5382 21.344 15.2037C21.9014 13.8691 22.1882 12.4387 22.188 10.9943C22.188 8.07713 21.0193 5.27945 18.9389 3.21659C16.8586 1.15373 14.0369 -0.00536226 11.0947 -0.0057373ZM16.3996 10.9943C16.3999 11.6853 16.263 12.3696 15.9966 13.0081C15.7302 13.6466 15.3395 14.2269 14.8469 14.7157C14.3543 15.2045 13.7694 15.5923 13.1255 15.8569C12.4817 16.1216 11.7916 16.2579 11.0947 16.2581C9.68738 16.2581 8.33771 15.7038 7.34259 14.7172C6.34747 13.7305 5.78841 12.3924 5.78841 10.9971V5.74034H11.0947C12.5016 5.74034 13.8509 6.29447 14.8458 7.28084C15.8407 8.2672 16.3996 9.60499 16.3996 10.9999V10.9943Z" fill="#FF9100"/>
<path d="M11.0933 16.2581C9.68621 16.2577 8.3369 15.7033 7.34209 14.7167C6.34727 13.7301 5.78842 12.3921 5.78842 10.9971V5.74034H11.0933V-0.0057373H2.2929e-06V10.9943C-0.000934694 12.4392 0.28531 13.8702 0.842379 15.2054C1.39945 16.5406 2.21642 17.7539 3.24662 18.776C4.27682 19.7981 5.50005 20.6089 6.84641 21.162C8.19278 21.7152 9.63588 21.9999 11.0933 21.9999C12.5742 22.0027 14.0406 21.7104 15.4055 21.1404C16.7703 20.5705 18.0057 19.7345 19.0384 18.6821L14.9446 14.6232C14.4489 15.1416 13.8516 15.554 13.1893 15.8352C12.527 16.1163 11.8137 16.2602 11.0933 16.2581Z" fill="#FFB000"/>
<path d="M5.78842 10.9999V5.74034H11.0933V-0.0057373H8.20607e-06V10.9943C-0.00351873 13.8661 1.12998 16.6246 3.15668 18.6764L7.24908 14.6176C6.31148 13.6425 5.78842 12.3471 5.78842 10.9999Z" fill="#FFC200"/>
<path d="M11.0947 0H0V5.73901H11.0947V0Z" fill="#FF7900"/>
</g>
<defs>
<clipPath id="clip0">
<rect width="22.1894" height="22" fill="white"/>
</clipPath>
</defs>
</svg>
