<svg width="218" height="49" viewBox="0 0 218 49" fill="none" xmlns="http://www.w3.org/2000/svg">
<g clip-path="url(#clip0)">
<path d="M57.8047 48.6142H92.7884V37.811H68.8322V29.3228H90.1266V18.5197H68.8322V10.8032H91.3796L93.9623 0H57.8047V48.6142Z" fill="white"/>
<path d="M99.6003 48.6142H109.867V28.5512C109.867 24.6157 112.149 22.378 114.811 22.378C117.472 22.378 119.754 24.6157 119.754 28.5512V48.6142H130.021V28.5512C130.021 24.6157 132.302 22.378 134.964 22.378C137.626 22.378 139.908 24.6157 139.908 28.5512V48.6142H150.175V27.3937C150.175 17.748 145.231 12.7323 137.626 12.7323C134.584 12.7323 131.998 13.8898 130.173 15.0472C129.108 15.7417 128.196 16.5134 127.359 17.3622C126.827 16.5134 126.066 15.7417 125.154 15.0472C123.557 13.8898 121.047 12.7323 117.472 12.7323C114.811 12.7323 112.605 13.7354 111.084 14.6614C110.172 15.2016 109.411 15.8961 108.727 16.5905L107.205 13.1181H99.6003V48.6142Z" fill="white"/>
<path d="M157.382 48.6142H164.987L166.508 45.1417C167.268 45.8362 168.181 46.5307 169.17 47.0709C170.919 48.074 173.352 49 176.395 49C185.14 49 192.746 41.3606 192.746 30.8661C192.746 20.3717 185.14 12.7323 176.395 12.7323C173.733 12.7323 171.527 13.4268 170.006 14.2756C169.094 14.7386 168.333 15.2787 167.649 15.8189V3.5L157.382 0V48.6142ZM174.874 39.3543C170.615 39.3543 167.268 35.8819 167.268 30.8661C167.268 25.8504 170.615 22.378 174.874 22.378C179.132 22.378 182.479 25.8504 182.479 30.8661C182.479 35.8819 179.132 39.3543 174.874 39.3543Z" fill="white"/>
<path d="M199.119 48.6142H209.386V30.4803C209.386 25.8504 211.972 23.1496 215.851 23.1496C216.991 23.1496 217.904 23.3039 218.588 23.5354L219.653 23.9213V13.1181L218.817 12.9638C218.284 12.8866 217.524 12.7323 216.611 12.7323C213.949 12.7323 211.896 13.7354 210.451 14.8929C209.614 15.5102 208.854 16.2047 208.245 16.9764L206.724 13.1181H199.119V48.6142Z" fill="white"/>
</g>
<g clip-path="url(#clip1)">
<path d="M23.947 -0.0126953H0V24.4873C0 30.9851 2.52298 37.2168 7.01391 41.8114C11.5048 46.4061 17.5958 48.9873 23.947 48.9873C27.0916 48.9873 30.2054 48.3536 33.1106 47.1223C36.0158 45.891 38.6555 44.0863 40.8789 41.8112C43.1024 39.5361 44.866 36.8353 46.0691 33.8628C47.2722 30.8903 47.8913 27.7045 47.8909 24.4873C47.8909 17.99 45.3683 11.7589 40.878 7.1643C36.3878 2.56975 30.2976 -0.01186 23.947 -0.0126953ZM35.3971 24.4873C35.3979 26.0264 35.1023 27.5505 34.5273 28.9727C33.9523 30.3948 33.109 31.6872 32.0458 32.7759C30.9825 33.8646 29.72 34.7284 28.3304 35.3178C26.9408 35.9072 25.4513 36.2109 23.947 36.2113C20.9094 36.2113 17.9962 34.9767 15.8484 32.7792C13.7005 30.5818 12.4938 27.6013 12.4938 24.4936V12.7854H23.947C26.9837 12.7854 29.8961 14.0196 32.0434 16.2165C34.1907 18.4134 35.3971 21.393 35.3971 24.4999V24.4873Z" fill="#FF9100"/>
<path d="M23.9439 36.2113C20.9069 36.2104 17.9945 34.9755 15.8473 32.7781C13.7001 30.5807 12.4938 27.6008 12.4938 24.4936V12.7854H23.9439V-0.0126953H4.94903e-06V24.4873C-0.00201746 27.7056 0.615818 30.8928 1.81821 33.8667C3.02059 36.8406 4.78397 39.543 7.00756 41.8194C9.23116 44.0958 11.8714 45.9016 14.7774 47.1337C17.6834 48.3657 20.7982 48.9999 23.9439 48.9999C27.1404 49.006 30.3055 48.355 33.2514 47.0856C36.1973 45.8162 38.8638 43.9542 41.0929 41.6102L32.2567 32.57C31.1868 33.7246 29.8975 34.6432 28.468 35.2693C27.0385 35.8955 25.4989 36.2161 23.9439 36.2113Z" fill="#FFB000"/>
<path d="M12.4938 24.4999V12.7854H23.9439V-0.0126953H1.77121e-05V24.4873C-0.00759488 30.8837 2.43896 37.0277 6.81342 41.5976L15.6465 32.5574C13.6228 30.3857 12.4938 27.5004 12.4938 24.4999Z" fill="#FFC200"/>
<path d="M23.947 0H0V12.7823H23.947V0Z" fill="#FF7900"/>
</g>
<defs>
<clipPath id="clip0">
<rect width="218" height="49" fill="white"/>
</clipPath>
<clipPath id="clip1">
<rect width="47.8939" height="49" fill="white"/>
</clipPath>
</defs>
</svg>
