<svg width="145" height="146" viewBox="0 0 145 146" fill="none" xmlns="http://www.w3.org/2000/svg">
<path d="M8.70572e-07 72.9953L0 146L72.5 146C91.7282 146 110.169 138.308 123.765 124.617C137.362 110.926 145 92.3574 145 72.9953C145 63.4086 143.125 53.9159 139.481 45.0591C135.838 36.2022 130.497 28.1549 123.765 21.3765C117.032 14.5981 109.04 9.22153 100.244 5.55373C91.4478 1.88593 82.0204 -0.00123498 72.5 8.64554e-07C53.2734 6.35279e-07 34.8342 7.69025 21.2381 21.3793C7.64194 35.0683 0.00247302 53.6349 8.70572e-07 72.9953Z" fill="#FF7900"/>
</svg>
