<svg width="193" height="194" viewBox="0 0 193 194" fill="none" xmlns="http://www.w3.org/2000/svg">
<path d="M193 97.0062L193 0L96.5 -4.21815e-06C70.9066 -5.33687e-06 46.3615 10.2203 28.2642 28.4125C10.1669 46.6047 1.21431e-05 71.2786 1.10185e-05 97.0062C1.04617e-05 109.745 2.49612 122.358 7.34585 134.127C12.1956 145.896 19.3039 156.589 28.265 165.596C37.226 174.602 47.8641 181.747 59.572 186.62C71.2798 191.494 83.828 194.002 96.5 194C122.091 194 146.635 183.781 164.731 165.592C182.828 147.402 192.997 122.732 193 97.0062Z" fill="#FFC200"/>
</svg>
